<svg width="24" height="24" viewBox="0 0 24 24" fill="none" xmlns="http://www.w3.org/2000/svg">
<path d="M9.57999 5.60938C10.0272 4.30119 11.8383 4.25581 12.371 5.48438L12.373 5.4873L12.4237 5.625L13.2255 7.9707C13.4335 8.57955 13.7702 9.13661 14.2118 9.60449C14.6534 10.0723 15.1903 10.4399 15.786 10.6826L15.7997 10.6885L16.0175 10.7695L16.0302 10.7744L18.3905 11.5801C19.6989 12.0273 19.7441 13.8385 18.5165 14.3711L18.3876 14.4199L16.0302 15.2256C15.4212 15.4335 14.8635 15.7703 14.3954 16.2119C13.9276 16.6535 13.5601 17.1904 13.3173 17.7861H13.3163L13.3114 17.7998L13.2304 18.0156L13.2284 18.0225L13.2255 18.0293L12.4198 20.3906C11.9733 21.6966 10.1684 21.7437 9.63272 20.5244L9.57315 20.3711L8.77432 18.0303C8.5664 17.4212 8.22967 16.8636 7.78799 16.3955C7.34641 15.9276 6.80954 15.5602 6.21378 15.3174L6.02823 15.7734L6.21378 15.3164L6.2001 15.3115L5.98428 15.2305L5.97745 15.2285L5.97061 15.2256L3.61026 14.4199C2.34074 13.9861 2.26002 12.2704 3.37491 11.6816L3.48721 11.6279L3.62491 11.5742L5.97061 10.7744C6.57945 10.5664 7.13652 10.2297 7.6044 9.78809C8.07229 9.34639 8.44074 8.80975 8.6835 8.21387L8.68839 8.2002L8.76944 7.98438L8.77139 7.97754L8.77432 7.9707L9.57999 5.60938ZM18.9999 2.5C19.0934 2.5 19.1852 2.52668 19.2646 2.57617C19.3413 2.62409 19.403 2.692 19.4442 2.77246L19.4765 2.85059L19.8232 3.86426L19.9023 4.09668L20.1347 4.17676L21.162 4.52637C21.2558 4.55821 21.3381 4.61769 21.3983 4.69629C21.4584 4.77478 21.4936 4.86917 21.4999 4.96777C21.5062 5.06658 21.4832 5.16535 21.4335 5.25098C21.386 5.33277 21.316 5.39869 21.2323 5.44238L21.1405 5.47949L20.1357 5.82324L19.9032 5.90234L19.8241 6.13477L19.4735 7.16211C19.4417 7.25553 19.3829 7.3374 19.3046 7.39746C19.226 7.45759 19.1309 7.49372 19.0321 7.5C18.9333 7.50627 18.8345 7.48235 18.7489 7.43262C18.6649 7.38371 18.5971 7.31147 18.5536 7.22461L18.5224 7.14844L18.1776 6.13574L18.0976 5.90332L17.8651 5.82324L16.8388 5.47363H16.8378C16.7441 5.44178 16.6617 5.3823 16.6015 5.30371C16.5415 5.22524 16.5062 5.13079 16.4999 5.03223C16.4936 4.93343 16.5166 4.83465 16.5663 4.74902C16.6143 4.66649 16.6847 4.59935 16.7694 4.55566L16.8524 4.52148L17.8642 4.17676L18.0966 4.09766L18.1767 3.86523L18.5263 2.83887C18.56 2.74008 18.624 2.65348 18.7089 2.59277C18.7724 2.54747 18.8454 2.51786 18.9218 2.50586L18.9999 2.5Z" fill="url(#paint0_linear_106_248)" stroke="#FFB676"/>
<defs>
<linearGradient id="paint0_linear_106_248" x1="12.048" y1="2" x2="12.048" y2="21.9056" gradientUnits="userSpaceOnUse">
<stop stop-color="#FFCD39"/>
<stop offset="0.504808" stop-color="#FBDD3A"/>
<stop offset="0.961538" stop-color="#FFCD39"/>
</linearGradient>
</defs>
</svg>
