<svg width="18" height="18" viewBox="0 0 18 18" fill="none" xmlns="http://www.w3.org/2000/svg">
<path d="M6.83033 4.086C7.27883 2.7735 9.09233 2.73375 9.62408 3.96675L9.66908 4.08675L10.2743 5.85675C10.413 6.26267 10.6372 6.63413 10.9317 6.94607C11.2261 7.258 11.5841 7.50316 11.9813 7.665L12.1441 7.72575L13.9141 8.33025C15.2266 8.77875 15.2663 10.5922 14.0341 11.124L13.9141 11.169L12.1441 11.7743C11.738 11.9129 11.3664 12.137 11.0543 12.4314C10.7423 12.7259 10.497 13.0839 10.3351 13.4813L10.2743 13.6432L9.66983 15.414C9.22133 16.7265 7.40783 16.7662 6.87683 15.534L6.83033 15.414L6.22583 13.644C6.08721 13.2379 5.86311 12.8663 5.56863 12.5543C5.27416 12.2422 4.91617 11.9969 4.51883 11.835L4.35683 11.7743L2.58683 11.1698C1.27358 10.7212 1.23383 8.90775 2.46683 8.37675L2.58683 8.33025L4.35683 7.72575C4.76275 7.58704 5.13421 7.3629 5.44615 7.06843C5.75808 6.77396 6.00324 6.41602 6.16508 6.01875L6.22583 5.85675L6.83033 4.086ZM14.2501 1.5C14.3904 1.5 14.5279 1.53936 14.6469 1.6136C14.766 1.68785 14.8618 1.794 14.9236 1.92L14.9596 2.00775L15.2221 2.77725L15.9923 3.03975C16.1329 3.08752 16.2562 3.17596 16.3465 3.29386C16.4368 3.41176 16.4901 3.55381 16.4995 3.70202C16.509 3.85022 16.4743 3.9979 16.3997 4.12634C16.3252 4.25478 16.2142 4.3582 16.0808 4.4235L15.9923 4.4595L15.2228 4.722L14.9603 5.49225C14.9125 5.63282 14.824 5.75602 14.706 5.84624C14.5881 5.93647 14.446 5.98964 14.2978 5.99904C14.1496 6.00844 14.002 5.97363 13.8736 5.89903C13.7452 5.82443 13.6418 5.7134 13.5766 5.58L13.5406 5.49225L13.2781 4.72275L12.5078 4.46025C12.3672 4.41248 12.244 4.32404 12.1537 4.20614C12.0634 4.08824 12.0101 3.94619 12.0006 3.79798C11.9911 3.64978 12.0259 3.5021 12.1004 3.37366C12.175 3.24522 12.2859 3.1418 12.4193 3.0765L12.5078 3.0405L13.2773 2.778L13.5398 2.00775C13.5904 1.85957 13.6861 1.73093 13.8135 1.63987C13.9408 1.54882 14.0935 1.49991 14.2501 1.5Z" fill="white"/>
</svg>
