<svg width="18" height="18" viewBox="0 0 18 18" fill="none" xmlns="http://www.w3.org/2000/svg">
<path fill-rule="evenodd" clip-rule="evenodd" d="M2.63772 12.75L7.93122 3.91276C8.04269 3.72914 8.19958 3.57733 8.38678 3.47198C8.57398 3.36662 8.78516 3.31128 8.99997 3.31128C9.21478 3.31128 9.42596 3.36662 9.61316 3.47198C9.80036 3.57733 9.95726 3.72914 10.0687 3.91276L15.3622 12.75C15.4713 12.939 15.529 13.1533 15.5295 13.3716C15.5301 13.5898 15.4736 13.8044 15.3655 13.994C15.2574 14.1836 15.1016 14.3416 14.9135 14.4523C14.7255 14.563 14.5117 14.6225 14.2935 14.625H3.70647C3.48816 14.6228 3.27425 14.5634 3.08605 14.4527C2.89785 14.342 2.74192 14.184 2.63381 13.9943C2.5257 13.8047 2.46917 13.59 2.46985 13.3717C2.47054 13.1533 2.52842 12.939 2.63772 12.75ZM8.99997 6.75001C9.19888 6.75001 9.38965 6.82903 9.5303 6.96968C9.67095 7.11034 9.74997 7.3011 9.74997 7.50001V9.75001C9.74997 9.94893 9.67095 10.1397 9.5303 10.2803C9.38965 10.421 9.19888 10.5 8.99997 10.5C8.80106 10.5 8.61029 10.421 8.46964 10.2803C8.32899 10.1397 8.24997 9.94893 8.24997 9.75001V7.50001C8.24997 7.3011 8.32899 7.11034 8.46964 6.96968C8.61029 6.82903 8.80106 6.75001 8.99997 6.75001ZM8.24997 12C8.24997 11.8011 8.32899 11.6103 8.46964 11.4697C8.61029 11.329 8.80106 11.25 8.99997 11.25H9.00597C9.20488 11.25 9.39565 11.329 9.5363 11.4697C9.67695 11.6103 9.75597 11.8011 9.75597 12C9.75597 12.1989 9.67695 12.3897 9.5363 12.5303C9.39565 12.671 9.20488 12.75 9.00597 12.75H8.99997C8.80106 12.75 8.61029 12.671 8.46964 12.5303C8.32899 12.3897 8.24997 12.1989 8.24997 12Z" fill="#FF8C00"/>
</svg>
