<svg width="18" height="18" viewBox="0 0 18 18" fill="none" xmlns="http://www.w3.org/2000/svg">
<path d="M3.75 9L5.25 6V5.25H3V6H4.5L3 9M6.75 9L8.25 6V5.25H6V6H7.5L6 9M9.75 9L11.25 6V5.25H9V6H10.5L9 9M15.75 1.5C14.925 1.5 14.25 2.175 14.25 3C14.25 3.525 14.55 4.05 15 4.275V12.75H12.75V11.25C13.2 11.25 13.5 10.95 13.5 10.5V3.75C13.5 3.3 13.2 3 12.75 3H9.9C9.3 2.1 8.25 1.5 7.125 1.5C6 1.5 4.95 2.1 4.35 3H1.5C1.05 3 0.75 3.3 0.75 3.75V10.5C0.75 10.95 1.05 11.25 1.5 11.25V16.5H12.75V14.25H15C15.825 14.25 16.5 13.575 16.5 12.75V4.275C16.95 4.05 17.25 3.525 17.25 3C17.25 2.175 16.575 1.5 15.75 1.5ZM9.75 14.25H4.5V12.75H9.75V14.25ZM12 9.75H2.25V4.5H12V9.75Z" fill="black"/>
</svg>
