<svg width="18" height="16" viewBox="0 0 18 16" fill="none" xmlns="http://www.w3.org/2000/svg">
<path fill-rule="evenodd" clip-rule="evenodd" d="M0.223831 13.0425L7.28183 1.2595C7.43045 1.01467 7.63965 0.812255 7.88924 0.671784C8.13884 0.531313 8.42042 0.45752 8.70683 0.45752C8.99324 0.45752 9.27482 0.531313 9.52442 0.671784C9.77402 0.812255 9.98321 1.01467 10.1318 1.2595L17.1898 13.0425C17.3353 13.2945 17.4122 13.5802 17.4129 13.8712C17.4137 14.1622 17.3383 14.4483 17.1942 14.7011C17.0501 14.9539 16.8423 15.1646 16.5916 15.3122C16.3408 15.4598 16.0558 15.5392 15.7648 15.5425H1.64883C1.35775 15.5395 1.07254 15.4603 0.821602 15.3127C0.570667 15.1652 0.362768 14.9545 0.218617 14.7016C0.0744659 14.4487 -0.000906512 14.1624 8.22794e-06 13.8714C0.000922968 13.5803 0.0780928 13.2945 0.223831 13.0425ZM8.70683 5.0425C8.97205 5.0425 9.2264 5.14785 9.41394 5.33539C9.60147 5.52293 9.70683 5.77728 9.70683 6.0425V9.0425C9.70683 9.30771 9.60147 9.56207 9.41394 9.7496C9.2264 9.93714 8.97205 10.0425 8.70683 10.0425C8.44161 10.0425 8.18726 9.93714 7.99972 9.7496C7.81219 9.56207 7.70683 9.30771 7.70683 9.0425V6.0425C7.70683 5.77728 7.81219 5.52293 7.99972 5.33539C8.18726 5.14785 8.44161 5.0425 8.70683 5.0425ZM7.70683 12.0425C7.70683 11.7773 7.81219 11.5229 7.99972 11.3354C8.18726 11.1479 8.44161 11.0425 8.70683 11.0425H8.71483C8.98005 11.0425 9.2344 11.1479 9.42194 11.3354C9.60947 11.5229 9.71483 11.7773 9.71483 12.0425C9.71483 12.3077 9.60947 12.5621 9.42194 12.7496C9.2344 12.9371 8.98005 13.0425 8.71483 13.0425H8.70683C8.44161 13.0425 8.18726 12.9371 7.99972 12.7496C7.81219 12.5621 7.70683 12.3077 7.70683 12.0425Z" fill="#FF8C00"/>
</svg>
